<svg width="232" height="234" viewBox="0 0 232 234" fill="none" xmlns="http://www.w3.org/2000/svg">
<ellipse cx="116" cy="117" rx="116" ry="117" fill="#F0F0F0"/>
<path d="M207.579 108.603C213.471 99.5291 214.914 88.2439 211.394 77.9199C208.048 68.1124 200.635 60.7869 190.901 57.587C186.528 38.6939 169.27 36.9299 163.539 36.8818C158.999 25.2091 146.752 21 137.218 21C127.14 21 120.099 25.3624 120.099 31.6077V82.2772H125.892V31.6077C125.892 29.2879 130.444 26.8009 137.218 26.8009C145.208 26.8009 155.518 30.349 158.573 40.2843C158.513 42.2572 157.815 51.7937 150.09 60.3652C149.018 61.5555 149.114 63.3904 150.3 64.4642C150.855 64.9644 151.548 65.2113 152.239 65.2113C153.031 65.2113 153.819 64.8884 154.391 64.254C161.743 56.094 163.685 47.1894 164.194 42.6966C171.3 42.8916 182.506 45.5293 185.406 59.6143C184.461 61.7974 180.485 69.1444 168.379 73.2194C166.863 73.7297 166.047 75.3759 166.557 76.8941C166.965 78.106 168.091 78.8708 169.301 78.8708C169.608 78.8708 169.919 78.8227 170.225 78.7201C182.452 74.6047 187.852 67.3501 189.978 63.4221C197.527 66.1953 203.269 72.0455 205.912 79.7952C208.969 88.758 207.405 98.9872 201.863 106.667C199.379 107.832 189.004 111.908 178.525 104.592C177.212 103.676 175.408 103.999 174.493 105.312C173.577 106.627 173.9 108.435 175.211 109.351C181.023 113.409 186.807 114.656 191.724 114.656C196.766 114.656 200.884 113.347 203.196 112.407C209.607 119.276 212.134 130.585 209.334 140.648C206.965 149.169 201.303 154.891 193.801 156.353C192.852 156.478 180.855 157.839 168.781 148.519C167.515 147.542 165.696 147.779 164.718 149.049C163.743 150.318 163.979 152.137 165.245 153.117C175.585 161.096 185.909 162.295 191.181 162.295C191.691 162.295 192.154 162.284 192.565 162.266C194.13 166.417 193.349 171.951 190.361 177.174C186.364 184.166 179.625 188.684 173.193 188.684C172.204 188.684 171.213 188.57 170.241 188.366C168.574 187.578 158.816 182.635 153.236 172.537C152.463 171.135 150.701 170.626 149.3 171.401C147.9 172.178 147.393 173.944 148.168 175.345C153.456 184.918 161.757 190.379 165.825 192.621C162.17 201.539 150.697 206.198 140.479 206.198C133.218 206.198 125.892 203.691 125.892 198.091V150.723H120.099V198.091C120.099 206.411 128.289 212 140.479 212C152.521 212 166.794 206.471 171.376 194.404C180.572 195.246 189.941 189.584 195.388 180.058C199.09 173.584 200.098 166.769 198.315 161.137C206.336 158.362 212.293 151.633 214.915 142.204C218.271 130.143 215.32 116.991 207.579 108.603Z" fill="#044880"/>
<path d="M105.392 150.723V198.091C105.392 200.484 104.165 202.356 101.64 203.813C98.9744 205.351 95.1268 206.198 90.8064 206.198C80.5889 206.198 69.1158 201.538 65.4604 192.621C69.5292 190.379 77.83 184.918 83.1176 175.346C83.8927 173.944 83.3844 172.178 81.986 171.401C80.5851 170.626 78.8237 171.135 78.0487 172.537C72.4702 182.635 62.7104 187.578 61.0464 188.366C60.0728 188.569 59.0803 188.684 58.0915 188.684C51.6608 188.684 44.9229 184.166 40.9249 177.177C37.9359 171.951 37.1557 166.417 38.721 162.266C39.132 162.284 39.5935 162.295 40.1043 162.295C45.3756 162.295 55.7006 161.095 66.0395 153.117C67.3064 152.137 67.5429 150.318 66.5668 149.049C65.5894 147.779 63.7712 147.542 62.503 148.519C50.5406 157.755 38.4568 156.474 37.4756 156.351C29.9791 154.886 24.3196 149.167 21.9502 140.648C19.1508 130.586 21.6771 119.276 28.0888 112.407C30.4001 113.347 34.5195 114.656 39.5619 114.656C44.4778 114.656 50.2637 113.408 56.0736 109.351C57.386 108.435 57.7084 106.627 56.793 105.312C55.8789 103.999 54.0746 103.676 52.7608 104.592C42.2828 111.908 31.9085 107.835 29.4227 106.67C23.8796 98.9884 22.3156 88.758 25.3729 79.7952C28.0167 72.0455 33.7583 66.1953 41.3067 63.4221C43.4334 67.3501 48.8337 74.6047 61.0603 78.7201C61.3663 78.8227 61.6774 78.8708 61.9846 78.8708C63.1934 78.8708 64.3225 78.1047 64.7283 76.8941C65.2391 75.3759 64.4211 73.7297 62.9051 73.2194C50.8048 69.147 46.8258 61.7999 45.88 59.6156C48.778 45.5293 59.9856 42.8916 67.0915 42.6966C67.5998 47.1894 69.5431 56.094 76.8943 64.254C77.4658 64.8884 78.2535 65.2113 79.045 65.2113C79.7367 65.2113 80.4295 64.9644 80.9846 64.4642C82.1719 63.3904 82.2667 61.5555 81.1945 60.3652C73.5348 51.8659 72.7863 42.2674 72.7155 40.2768C75.7753 30.3478 86.0801 26.8009 94.0673 26.8009C100.842 26.8009 105.392 29.2879 105.392 31.6077V82.2772H111.186V31.6077C111.186 25.3624 104.146 21 94.0673 21C84.5338 21 72.2868 25.2091 67.7477 36.8818C62.0162 36.9299 44.7573 38.6939 40.385 57.587C30.6504 60.7869 23.236 68.1124 19.8917 77.9211C16.3704 88.2439 17.8131 99.5291 23.7052 108.603C15.9645 116.991 13.0135 130.143 16.3692 142.204C18.9928 151.633 24.9493 158.362 32.9706 161.137C31.1865 166.769 32.1955 173.586 35.8989 180.06C41.3447 189.584 50.71 195.243 59.9085 194.404C64.4906 206.471 78.7643 212 90.8064 212C90.8064 212 90.8064 212 90.8077 212C96.2041 212 100.949 210.907 104.531 208.841C108.823 206.365 111.186 202.547 111.186 198.091V150.723H105.392Z" fill="#044880"/>
<path d="M159.797 131.578C158.762 131.578 157.92 130.733 157.92 129.695C157.92 128.658 158.762 127.813 159.797 127.813C160.832 127.813 161.676 128.658 161.676 129.695C161.676 130.733 160.832 131.578 159.797 131.578ZM144.021 144.921H87.2648V88.0793H144.021V144.921ZM136.706 162.602C135.671 162.602 134.829 161.759 134.829 160.72C134.829 159.683 135.671 158.84 136.706 158.84C137.743 158.84 138.586 159.683 138.586 160.72C138.586 161.759 137.743 162.602 136.706 162.602ZM94.5781 162.602C93.5425 162.602 92.6992 161.759 92.6992 160.72C92.6992 159.683 93.5425 158.84 94.5781 158.84C95.6136 158.84 96.457 159.683 96.457 160.72C96.457 161.759 95.6136 162.602 94.5781 162.602ZM71.4878 131.578C70.4522 131.578 69.6101 130.733 69.6101 129.695C69.6101 128.658 70.4522 127.813 71.4878 127.813C72.5233 127.813 73.3666 128.658 73.3666 129.695C73.3666 130.733 72.5233 131.578 71.4878 131.578ZM71.4878 105.186C70.4522 105.186 69.6101 104.34 69.6101 103.304C69.6101 102.264 70.4522 101.421 71.4878 101.421C72.5233 101.421 73.3666 102.264 73.3666 103.304C73.3666 104.34 72.5233 105.186 71.4878 105.186ZM94.5781 70.3968C95.6136 70.3968 96.457 71.2402 96.457 72.2798C96.457 73.3156 95.6136 74.1589 94.5781 74.1589C93.5425 74.1589 92.6992 73.3156 92.6992 72.2798C92.6992 71.2402 93.5425 70.3968 94.5781 70.3968ZM136.706 70.3968C137.743 70.3968 138.586 71.2402 138.586 72.2798C138.586 73.3156 137.743 74.1589 136.706 74.1589C135.671 74.1589 134.829 73.3156 134.829 72.2798C134.829 71.2402 135.671 70.3968 136.706 70.3968ZM159.797 101.421C160.832 101.421 161.676 102.264 161.676 103.304C161.676 104.34 160.832 105.186 159.797 105.186C158.762 105.186 157.92 104.34 157.92 103.304C157.92 102.264 158.762 101.421 159.797 101.421ZM159.797 123.172C157.251 123.172 155.065 124.657 153.994 126.794H149.814V106.205H153.994C155.065 108.341 157.251 109.827 159.797 109.827C163.389 109.827 166.31 106.9 166.31 103.304C166.31 99.7051 163.389 96.7787 159.797 96.7787C157.25 96.7787 155.065 98.2628 153.994 100.403H149.814V82.2772H139.603V78.0895C141.737 77.0182 143.221 74.8288 143.221 72.2798C143.221 68.681 140.298 65.7546 136.706 65.7546C133.115 65.7546 130.193 68.681 130.193 72.2798C130.193 74.8288 131.677 77.0182 133.81 78.0895V82.2772H97.4748V78.0895C99.6091 77.0182 101.091 74.8288 101.091 72.2798C101.091 68.681 98.1702 65.7546 94.5781 65.7546C90.9859 65.7546 88.0652 68.681 88.0652 72.2798C88.0652 74.8288 89.5471 77.0182 91.6814 78.0895V82.2772H81.4714V100.403H77.2913C76.2204 98.2628 74.0343 96.7787 71.4878 96.7787C67.8969 96.7787 64.9749 99.7051 64.9749 103.304C64.9749 106.9 67.8969 109.827 71.4878 109.827C74.0343 109.827 76.2204 108.341 77.2913 106.205H81.4714V126.794H77.2913C76.2204 124.657 74.0343 123.172 71.4878 123.172C67.8969 123.172 64.9749 126.1 64.9749 129.695C64.9749 133.292 67.8969 136.22 71.4878 136.22C74.0343 136.22 76.2204 134.735 77.2913 132.597H81.4714V150.723H91.6814V154.91C89.5471 155.98 88.0652 158.171 88.0652 160.72C88.0652 164.318 90.9859 167.244 94.5781 167.244C98.1702 167.244 101.091 164.318 101.091 160.72C101.091 158.17 99.6091 155.98 97.4748 154.91V150.723H133.81V154.91C131.677 155.98 130.193 158.171 130.193 160.72C130.193 164.318 133.115 167.244 136.706 167.244C140.298 167.244 143.221 164.318 143.221 160.72C143.221 158.17 141.737 155.98 139.603 154.91V150.723H149.814V132.597H153.994C155.065 134.735 157.251 136.22 159.797 136.22C163.389 136.22 166.31 133.292 166.31 129.695C166.31 126.1 163.389 123.172 159.797 123.172Z" fill="#044880"/>
<path d="M99.0549 136.15C97.6882 136.15 96.3882 135.95 95.1549 135.55C93.9215 135.15 92.9049 134.55 92.1049 133.75C91.3382 132.95 90.9549 131.95 90.9549 130.75C90.9549 129.517 91.4882 128.4 92.5549 127.4C93.6549 126.4 95.2049 125.9 97.2049 125.9C99.3049 125.9 101.288 126.383 103.155 127.35C105.055 128.283 107.055 129.3 109.155 130.4C110.922 128.7 112.488 126.733 113.855 124.5C115.255 122.233 116.588 119.85 117.855 117.35C119.155 114.85 120.488 112.367 121.855 109.9C123.222 107.4 124.755 105.083 126.455 102.95C126.755 102.583 127.055 102.217 127.355 101.85C127.655 101.45 127.972 101.067 128.305 100.7C126.505 99.6333 124.572 98.8167 122.505 98.25C120.438 97.65 118.305 97.35 116.105 97.35C113.372 97.35 110.838 97.7 108.505 98.4C106.172 99.1 104.138 100.05 102.405 101.25C100.705 102.417 99.3716 103.75 98.4049 105.25C97.4382 106.717 96.9549 108.233 96.9549 109.8C96.9549 111.2 97.2382 112.367 97.8049 113.3C98.4049 114.2 99.1549 114.867 100.055 115.3C100.955 115.733 101.838 115.95 102.705 115.95C103.872 115.95 104.872 115.733 105.705 115.3C106.538 114.833 107.222 114.267 107.755 113.6C108.288 112.933 108.688 112.283 108.955 111.65C109.222 111.017 109.372 110.5 109.405 110.1C109.405 109.867 109.555 109.75 109.855 109.75C110.322 109.75 110.505 110.033 110.405 110.6C110.238 111.933 109.738 113.1 108.905 114.1C108.072 115.067 107.072 115.833 105.905 116.4C104.738 116.933 103.538 117.2 102.305 117.2C100.838 117.2 99.5049 116.933 98.3049 116.4C97.1049 115.833 96.1382 115 95.4049 113.9C94.7049 112.767 94.3549 111.383 94.3549 109.75C94.3549 107.583 94.9382 105.65 96.1049 103.95C97.2715 102.217 98.8715 100.75 100.905 99.55C102.938 98.35 105.272 97.4333 107.905 96.8C110.538 96.1667 113.322 95.85 116.255 95.85C118.522 95.85 120.805 96.1333 123.105 96.7C125.405 97.2333 127.588 98.05 129.655 99.15C130.522 98.1833 131.405 97.3333 132.305 96.6C133.238 95.8333 134.188 95.25 135.155 94.85C135.588 94.6833 135.938 94.6 136.205 94.6C136.405 94.6 136.505 94.65 136.505 94.75C136.505 94.9167 136.122 95.3333 135.355 96C134.922 96.4 134.405 97.0167 133.805 97.85C133.205 98.65 132.588 99.5333 131.955 100.5C133.955 101.8 135.722 103.383 137.255 105.25C138.822 107.083 140.055 109.183 140.955 111.55C141.855 113.883 142.305 116.483 142.305 119.35C142.305 122.15 141.822 124.6 140.855 126.7C139.888 128.767 138.572 130.483 136.905 131.85C135.238 133.217 133.322 134.233 131.155 134.9C128.988 135.6 126.705 135.95 124.305 135.95C121.472 135.95 118.838 135.567 116.405 134.8C114.005 134.033 111.772 133.167 109.705 132.2C108.072 133.5 106.372 134.483 104.605 135.15C102.872 135.817 101.022 136.15 99.0549 136.15ZM128.555 105.85C127.855 106.95 127.005 108.35 126.005 110.05C125.005 111.717 123.888 113.533 122.655 115.5C121.422 117.467 120.138 119.433 118.805 121.4C117.472 123.367 116.122 125.217 114.755 126.95C113.422 128.65 112.122 130.083 110.855 131.25C112.622 132.117 114.572 132.867 116.705 133.5C118.838 134.133 121.255 134.45 123.955 134.45C127.022 134.45 129.688 133.817 131.955 132.55C134.222 131.25 135.988 129.5 137.255 127.3C138.522 125.067 139.155 122.55 139.155 119.75C139.155 116.117 138.388 112.817 136.855 109.85C135.322 106.85 133.272 104.35 130.705 102.35C130.272 103.05 129.872 103.717 129.505 104.35C129.138 104.95 128.822 105.45 128.555 105.85ZM99.0549 134.6C100.755 134.7 102.405 134.4 104.005 133.7C105.638 132.967 106.988 132.183 108.055 131.35C106.055 130.383 104.205 129.5 102.505 128.7C100.838 127.9 99.2882 127.5 97.8549 127.5C96.6882 127.5 95.7882 127.85 95.1549 128.55C94.5215 129.217 94.2049 129.967 94.2049 130.8C94.2049 131.867 94.6215 132.75 95.4549 133.45C96.3215 134.15 97.5215 134.533 99.0549 134.6Z" fill="#044880"/>
</svg>
